<svg  version="1.1" id="Layer_1" xmlns="http://www.w3.org/2000/svg"
    xmlns:xlink="http://www.w3.org/1999/xlink" viewBox="0 0 512 512" xml:space="preserve" fill="#000000">
    <g id="SVGRepo_bgCarrier" stroke-width="0"></g>
    <g id="SVGRepo_tracerCarrier" stroke-linecap="round" stroke-linejoin="round"></g>
    <g id="SVGRepo_iconCarrier">
        <polygon style="fill:#E0B76E;" points="376.808,187.877 256,512 28.996,384.006 28.996,127.994 "></polygon>
        <polygon style="fill:#F4CE8F;"
            points="483.004,127.994 483.004,384.006 256,512 256,256 250.414,252.854 28.996,127.994 250.414,3.146 256,0 261.586,3.146 ">
        </polygon>
        <polygon style="fill:#F2CA7F;" points="256,256 256,512 483.004,384.006 483.004,127.994 "></polygon>
        <g>
            <polygon style="fill:#898686;" points="80.899,204.444 80.899,359.101 65.349,350.333 65.349,195.675 ">
            </polygon>
            <polygon style="fill:#898686;" points="114.082,223.152 114.082,347.39 98.531,338.622 98.531,214.384 ">
            </polygon>
            <polygon style="fill:#898686;" points="213.606,279.278 213.606,433.936 198.056,425.167 198.056,270.51 ">
            </polygon>
            <polygon style="fill:#898686;" points="147.253,241.861 147.253,366.099 131.702,357.331 131.702,233.093 ">
            </polygon>
            <polygon style="fill:#898686;" points="180.436,260.581 180.436,384.819 164.885,376.051 164.885,251.813 ">
            </polygon>
            <polygon style="fill:#898686;" points="114.082,365.572 114.082,379.289 98.531,370.521 98.531,356.804 ">
            </polygon>
            <polygon style="fill:#898686;" points="147.253,384.281 147.253,397.998 131.702,389.23 131.702,375.513 ">
            </polygon>
            <polygon style="fill:#898686;" points="180.436,403.002 180.436,416.719 164.885,407.95 164.885,394.234 ">
            </polygon>
        </g>
    </g>
</svg>